<?xml version="1.0" encoding="UTF-8" standalone="no"?>
<!-- Created with Inkscape (http://www.inkscape.org/) -->

<svg
   width="60.003906"
   height="60.013664"
   viewBox="0 0 15.876031 15.878613"
   version="1.1"
   id="svg1"
   xmlns="http://www.w3.org/2000/svg"
   xmlns:svg="http://www.w3.org/2000/svg">
  <defs
     id="defs1" />
  <g
     id="layer2"
     style="display:none"
     transform="translate(-3.9687493,-3.9687492)">
    <path
       d="M 0.99218723,0 C 0.44421738,1.2499997e-7 1.2499997e-7,0.44421738 0,0.99218723 V 7.937498 14.88281 c 0,0.54797 0.44421738,0.992187 0.99218723,0.992187 H 7.937498 c 4.383759,0 7.937499,-3.55374 7.937499,-7.937499 C 15.874997,3.5537388 12.321257,-1.2499996e-7 7.937498,0 Z"
       style="display:inline;opacity:1;mix-blend-mode:normal;fill:#ffffff;stroke:#ffffff;stroke-width:0;stroke-miterlimit:0"
       id="path31" />
  </g>
  <g
     id="layer1"
     style="display:inline"
     transform="translate(-3.9687493,-3.9687492)">
    <path
       style="display:none;opacity:0.98;fill:none;stroke:#554400;stroke-width:0;stroke-miterlimit:0;stroke-dasharray:none"
       d="m 1.886978e-7,7.937499 c 0,0 3.1749996113022,-2.6458331 7.9374985113022,-3e-7 4.7625003,2.6458333 7.9374983,-3e-7 7.9374983,-3e-7"
       id="path7" />
    <path
       d="m 1.4434891e-7,0 v 3.9687493 3.9687492 c 0,0 0.57000029565109,-0.4691805 1.57974815565109,-0.8149372 1.0918055,-0.3738547 2.6990296,-0.602142 4.6818839,0.067179 0.5329551,0.1799013 1.0923239,0.4235675 1.6758664,0.7477578 V 3.9687493 C 7.9374986,1.7768696 6.160629,1.9188726e-8 3.9687494,0 Z"
       style="display:none;opacity:0.98;fill:#b3b3b3;stroke:#554400;stroke-width:0;stroke-miterlimit:0"
       id="path11" />
  </g>
  <g
     id="layer5"
     style="display:none"
     transform="translate(-3.9687493,-3.9687492)">
    <path
       d="M 0.86724521,0 C 0.37001324,1.2122449e-7 -0.03307285,0.44421744 -0.03307296,0.99218733 V 7.9374986 c 0,0 0.51977415,-0.5658229 1.44050906,-0.9810253 1.2574915,-0.5670617 3.2672158,-0.8519039 5.7620361,0.9810253 4.3215278,3.1749994 7.2025438,0 7.2025438,0 C 14.372016,3.5537393 11.147328,-1.2122449e-7 7.1694722,0 H 2.3077543 Z"
       style="display:inline;fill:#ffffff;stroke:#ffffff;stroke-width:0;stroke-miterlimit:0"
       id="path8" />
    <path
       d="M 3.4674765,8.1154721 C 2.65173,8.101815 1.9575886,8.2958836 1.4074361,8.543973 v 6.338837 c 0,0.547969 0.4030863,0.992187 0.9003182,0.992187 h 4.8617179 1.440509 c 3.7891048,0 6.8927068,-3.224988 7.1789098,-7.3198618 -0.905469,0.4141411 -1.416875,0.9698631 -1.416875,0.9698631 0,0 -0.0697,0.070148 -0.178938,0.1686719 C 13.522984,10.29806 10.885278,12.254978 7.1694722,9.5249983 5.7661358,8.4939755 4.5162935,8.1330314 3.4674765,8.1154721 Z"
       style="display:inline;fill:#917c6f;stroke:#ffffff;stroke-width:0;stroke-miterlimit:0"
       id="path9" />
  </g>
  <g
     id="layer4"
     style="display:none"
     transform="translate(-3.9687493,-3.9687492)">
    <path
       d="M 0.74414048,0 C 0.33316297,9.375e-8 9.375e-8,0.33316301 0,0.74414048 V 5.9531239 11.162107 c 0,0.410978 0.33316297,0.744141 0.74414048,0.744141 H 3.9687493 v 0 0 3.224609 c 0,0.410978 0.333163,0.74414 0.7441404,0.74414 h 5.2089834 c 3.2878189,0 5.9531239,-2.665304 5.9531239,-5.9531239 0,-2.6865703 -1.779844,-4.9565966 -4.224548,-5.6973256 0,0 0,0 0,0 0,0 0,0 0,0 C 10.90972,1.779844 8.6396942,-7.6605769e-8 5.9531239,0 Z M 4.7506135,3.7036492 H 5.093745 c 0.1462528,-1.059e-4 0.2649206,0.1183305 0.2651,0.2645833 1.06e-4,0.1464546 -0.1186454,0.2652061 -0.2651,0.2651 H 4.7506135 c -0.2892827,0 -0.517281,0.2279982 -0.517281,0.517281 V 5.093745 c 1.061e-4,0.1464546 -0.1186454,0.265206 -0.2651,0.2651 C 3.8219797,5.3586656 3.7035433,5.2399978 3.7036492,5.093745 V 4.7506135 c 0,-0.5749365 0.472028,-1.0469643 1.0469643,-1.0469643 z m 6.5887435,4.3227327 a 0.26458329,0.26458329 0 0 1 0.201538,0.00103 0.26458329,0.26458329 0 0 1 0.14056,0.3457152 c -0.314717,0.7440763 -0.769258,1.414185 -1.331701,1.9766269 -0.5624422,0.562443 -1.2325501,1.016985 -1.9766233,1.331701 A 0.26458329,0.26458329 0 0 1 8.0274155,11.540895 0.26458329,0.26458329 0 0 1 8.1679753,11.19518 C 8.8483461,10.907407 9.4597218,10.489445 9.9745831,9.9745831 10.489445,9.4597224 10.907406,8.8483464 11.19518,8.1679753 a 0.26458329,0.26458329 0 0 1 0.144177,-0.1415934 z"
       style="display:inline;fill:#333333;stroke:#ffffff;stroke-width:0;stroke-miterlimit:0"
       id="path12" />
  </g>
  <g
     id="layer3"
     style="display:none"
     transform="translate(-3.9687493,-3.9687492)">
    <g
       id="g17"
       style="display:inline;fill:#d81b60;fill-opacity:1;stroke:none;stroke-width:1.00012;stroke-dasharray:none"
       transform="translate(3.9465265,3.970042)">
      <path
         d="M 0.79374987,0 C 0.36755697,1e-7 0.02222092,0.34542124 0.02222092,0.77152901 V 6.1722319 11.572934 c 0,0.426108 0.34533605,0.771529 0.77152895,0.771529 H 3.3651686 V 9.6474713 4.2994783 c 3e-7,-0.5262428 0.4308046,-0.957047 0.9570474,-0.9570473 h 5.400186 c 0.749347,-10e-8 1.468537,0.1336218 2.136303,0.3720702 C 10.908439,1.5290212 8.7315594,-7e-8 6.196003,0 Z"
         style="display:inline;fill:#d81b60;fill-opacity:1;stroke:none;stroke-width:1.00012;stroke-miterlimit:0;stroke-dasharray:none"
         id="path15" />
      <path
         d="m 12.183233,4.0390291 c 0.238309,0.6675908 0.371554,1.3866727 0.371554,2.1357866 0,3.5096721 -2.849629,6.3572323 -6.3593007,6.3572323 H 3.550687 a 0.18522683,0.18522683 0 0 1 -0.00103,-5.16e-4 v 2.569351 c 0,0.426108 0.3458528,0.771529 0.7720457,0.771529 h 5.4017368 c 3.4095435,0 6.1737825,-2.763369 6.1737825,-6.1722308 0,-2.5344728 -1.528865,-4.7107328 -3.713985,-5.6611521 z"
         style="display:inline;fill:#d81b60;fill-opacity:1;stroke:none;stroke-width:1.00012;stroke-miterlimit:0;stroke-dasharray:none"
         id="path17" />
      <path
         d="m 4.322216,3.7134677 c -0.3261548,1e-7 -0.5860105,0.2598558 -0.5860107,0.5860106 v 5.347993 2.5135407 h 2.459281 C 9.504995,12.161011 12.18375,9.4843247 12.18375,6.1748157 12.18375,5.4435791 12.036594,4.7481568 11.796694,4.1005241 11.149061,3.8606249 10.453638,3.7134676 9.722402,3.7134677 Z"
         style="display:inline;fill:#d81b60;fill-opacity:1;stroke:none;stroke-width:1.00012;stroke-linecap:round;stroke-linejoin:round;stroke-miterlimit:0;stroke-dasharray:none"
         id="path16" />
    </g>
  </g>
  <g
     id="layer6"
     style="display:inline"
     transform="translate(-3.9687493,-3.9687492)">
    <path
       d="m 4.9614534,3.9687493 c -0.5479979,1e-7 -0.992704,0.444201 -0.9927041,0.9921874 v 6.9453103 6.945828 c 0,0.547987 0.4447062,0.992187 0.9927041,0.992187 H 6.6150989 V 19.05258 18.576123 13.496331 7.9374987 c 0,-0.72157 0.5967198,-1.3182656 1.3182656,-1.3182656 h 5.5588325 c 2.769804,0 5.160658,1.6477078 6.24923,4.0131899 C 19.131668,6.8544334 15.8569,3.9687492 11.906765,3.9687493 Z"
       style="display:inline;fill:#f5f5f5;fill-opacity:1;stroke:#ffffff;stroke-width:0;stroke-miterlimit:0"
       id="path33" />
    <path
       style="display:none;fill:#ffffff;stroke-miterlimit:0;paint-order:stroke fill markers"
       d="m 7.9352666,7.1437488 c -0.4385751,0 -0.794111,0.3554696 -0.794111,0.7939639 v 5.5577453 5.081367 0.476379 0.793964 h 0.794111 0.4764667 5.0823097 c 3.508602,0 6.352888,-2.843756 6.352888,-6.35171 0,-3.5079502 -2.844286,-6.3517092 -6.352888,-6.3517092 z"
       id="path29" />
    <path
       d="m 15.543235,7.4848132 c 0.217614,0.6410247 0.33693,1.3271681 0.33693,2.0417355 0,3.5079523 -2.843979,6.3520663 -6.3525828,6.3520663 H 7.141165 v 1.322399 1.375627 0.476456 0.794267 h 0.7942666 0.4764566 5.0823758 c 3.508602,0 6.352583,-2.844112 6.352583,-6.352066 0,-2.43346 -1.369398,-4.5464575 -3.379121,-5.6130931 -0.102637,-0.054473 -0.207299,-0.1055827 -0.313159,-0.1545125 -0.01954,-0.00902 -0.03927,-0.017524 -0.05891,-0.026355 -0.08987,-0.040433 -0.180833,-0.078914 -0.272852,-0.1152384 -0.02361,-0.00931 -0.04705,-0.018872 -0.0708,-0.027905 C 15.683255,7.532008 15.6131,7.508659 15.543233,7.484813 Z"
       style="display:none;fill:#ffffff;stroke-miterlimit:0;paint-order:stroke fill markers"
       id="path34" />
    <path
       d="m 16.465659,7.8822049 c 0.469053,0.8857697 0.737518,1.895223 0.735872,2.9672591 -0.0057,3.702616 -2.84398,6.351549 -6.352583,6.351549 H 7.1390979 v 1.375627 0.476456 0.794267 h 6.3530991 c 3.508602,0 6.352583,-2.844112 6.352583,-6.352066 0,-2.43346 -1.369398,-4.5464565 -3.379121,-5.6130921 z"
       style="display:inline;fill:#f5f5f5;fill-opacity:1;stroke-miterlimit:0;paint-order:stroke fill markers"
       id="path35" />
    <path
       d="M 16.467726,7.8822049 C 15.580336,7.4112335 14.568955,7.1437488 13.494264,7.1437488 H 7.9354316 c -0.4385751,0 -0.7942666,0.3552556 -0.7942666,0.7937499 v 5.5577993 3.705716 h 3.70985 c 3.508603,0 6.352583,-2.843596 6.352583,-6.351549 0,-1.0720385 -0.266819,-2.0814904 -0.735872,-2.9672601 z"
       style="display:none;fill:#ffffff;stroke-miterlimit:0;paint-order:stroke fill markers"
       id="path30" />
    <path
       d="M 15.542718,7.4832629 C 14.899747,7.2643016 14.211343,7.1437488 13.494264,7.1437488 H 7.9354316 c -0.4385751,0 -0.7942666,0.3552556 -0.7942666,0.7937499 v 5.5577993 2.383317 h 2.3864172 c 3.5086038,0 6.3525828,-2.844114 6.3525828,-6.3520663 0,-0.7151407 -0.1195,-1.4018193 -0.337447,-2.0432858 z"
       style="display:none;fill:#ffffff;stroke-miterlimit:0;paint-order:stroke fill markers"
       id="path32" />
  </g>
  <g
     id="layer8"
     style="display:none"
     transform="translate(-3.9687493,-3.9687492)">
    <path
       d="m 4.9609365,3.9687493 c -0.5479698,1e-7 -0.9921871,0.4442174 -0.9921872,0.9921872 v 6.9453115 6.945311 c 0,0.54797 0.4442174,0.992187 0.9921872,0.992187 h 6.9453115 c 4.383759,0 7.937499,-3.55374 7.937499,-7.937498 0,-4.3837599 -3.55374,-7.9374988 -7.937499,-7.9374987 z"
       style="display:none;mix-blend-mode:normal;fill:#ffffff;stroke:#ffffff;stroke-width:0;stroke-miterlimit:0"
       id="path31-1" />
    <path
       d="m 4.9609367,3.9687493 c -0.5479698,1e-7 -0.9921873,0.4442176 -0.9921874,0.9921874 v 6.9453113 6.945311 c 0,0.54797 0.4442176,0.992188 0.9921874,0.992188 H 6.615099 V 19.05103 13.494264 c -1e-7,-3.7929906 3.0861731,-6.879165 6.879165,-6.879165 2.762632,0 5.148721,1.6380567 6.241996,3.993037 C 19.116444,6.8421822 15.847718,3.9687492 11.906248,3.9687493 Z"
       style="display:inline;fill:#ffffff;stroke:#ffffff;stroke-width:0;stroke-miterlimit:0"
       id="path41" />
    <g
       id="path38"
       style="display:none">
      <path
         style="display:inline;fill:#ffffff;stroke-miterlimit:0"
         d="m 13.493748,7.1437488 c -3.5070093,0 -6.3499993,2.8429911 -6.3499992,6.3499992 v 5.556249 0.79375 h 0.7937499 5.5562493 5.556249 c 0.438376,0 0.79375,-0.355374 0.79375,-0.79375 v -5.556249 c 0,-3.5070082 -2.842992,-6.3499992 -6.349999,-6.3499992 z"
         id="path39" />
      <path
         style="display:inline;fill:#ffffff;stroke-miterlimit:0"
         d="m 13.494141,6.6152344 c -3.7929924,0 -6.8789067,3.0859155 -6.8789066,6.8789066 v 5.55664 0.792969 l 0.5292968,0.529297 H 7.9375 h 5.556641 5.55664 c 0.724359,0 1.322266,-0.597907 1.322266,-1.322266 v -5.55664 c 0,-3.7929914 -3.085917,-6.8789066 -6.878906,-6.8789066 z m 0,1.0585937 c 3.221024,0 5.820312,2.5992869 5.820312,5.8203129 v 5.55664 c 0,0.152393 -0.111279,0.263672 -0.263672,0.263672 H 13.494141 7.9375 7.6738281 v -0.263672 -5.55664 c -10e-8,-3.221026 2.5992859,-5.8203129 5.8203129,-5.8203129 z"
         id="path40" />
    </g>
    <path
       d="m 14.510221,7.219713 c 1.893307,0.8712811 2.714282,2.7338425 2.687691,4.950601 l -0.04703,3.92069 c -0.0069,0.577476 -0.477743,1.047706 -1.055232,1.055233 l -3.924821,0.05116 c -1.675693,6.5e-5 -3.3513869,-3.84e-4 -5.0270802,5.17e-4 v 2.645833 h 6.3468972 5.558834 c 0.438602,0 0.794267,-0.356171 0.794267,-0.794783 v -5.558833 c 0,-3.161641 -2.309663,-5.7823726 -5.333524,-6.270417 z"
       style="display:inline;fill:#ffffff;stroke:#ffffff;stroke-width:0;stroke-miterlimit:0"
       id="path37-2-7" />
  </g>
  <g
     id="layer9"
     style="display:none"
     transform="translate(-3.9687493,-3.9687492)">
    <path
       d="m 4.9677004,3.9687493 c -0.5517053,1e-7 -0.998951,0.4442176 -0.9989511,0.9921874 v 6.9453113 6.94531 c 0,0.54797 0.4472458,0.992188 0.9989511,0.992188 h 1.6654387 v -0.792717 -5.556765 c -1e-7,-3.7929906 3.1072115,-6.879165 6.9260599,-6.879165 2.781465,0 5.18382,1.6380567 6.284548,3.993037 -0.624042,-3.7659538 -3.91505,-6.6393868 -7.883389,-6.6393867 z"
       style="display:inline;fill:#ffffff;stroke:#ffffff;stroke-width:0;stroke-miterlimit:0"
       id="path41-1" />
    <path
       d="M 14.541501,7.3365019 C 16.422276,8.20372 17.73034,10.09622 17.73034,12.28762 c 0,3.008712 -2.465009,5.45703 -5.49423,5.45703 H 7.798582 7.1653927 v 1.040764 0.271301 0.787032 h 0.7923971 0.2731507 5.2736285 5.546781 c 0.437627,0 0.792397,-0.352368 0.792397,-0.787032 v -5.509224 c 0,-3.126489 -2.294617,-5.719333 -5.302246,-6.2109891 z"
       style="display:inline;fill:#ffffff;stroke:#ffffff;stroke-width:0;stroke-miterlimit:0"
       id="path42" />
  </g>
  <g
     id="layer7"
     style="display:none"
     transform="translate(-3.9687493,-3.9687492)">
    <path
       d="m 2.3176877,3.4395828 c -0.5479979,10e-8 -0.992704,0.444201 -0.9927041,0.9921874 v 6.9453108 6.945828 c 0,0.547987 0.4447062,0.992187 0.9927041,0.992187 H 3.9713332 V 18.523414 18.046957 12.967165 7.4083322 c 0,-0.72157 0.5967198,-1.3182656 1.3182656,-1.3182656 h 5.5588322 c 2.769804,0 5.160658,1.6477078 6.24923,4.0131904 C 16.487902,6.3252669 13.213134,3.4395827 9.2629992,3.4395828 Z"
       style="display:inline;fill:#ffffff;stroke:#ffffff;stroke-width:0;stroke-miterlimit:0"
       id="path33-8" />
    <path
       d="m 11.86439,6.6910634 c 1.893307,0.8712811 2.714282,2.7338425 2.687691,4.9506006 l -0.04703,3.92069 c -0.0069,0.577476 -0.477743,1.047706 -1.055232,1.055233 l -3.9248208,0.05116 H 5.4590973 5.0777253 4.4441724 l 0.047026,1.851566 c 5.837e-4,0.02298 0.0048,0.04468 0.00672,0.06718 v 0.727604 h 0.7875487 0.010335 5.5490139 5.558833 c 0.438602,0 0.794267,-0.356171 0.794267,-0.794783 v -5.558833 c 0,-3.1616415 -2.309663,-5.7823722 -5.333524,-6.2704166 z"
       style="display:inline;fill:#ffffff;stroke:#ffffff;stroke-width:0;stroke-miterlimit:0"
       id="path37-2" />
  </g>
  <circle
     style="display:none;opacity:0.98;fill:#f579f5;fill-opacity:1;stroke:none;stroke-width:1.10077;stroke-linecap:square;stroke-linejoin:miter;stroke-miterlimit:0;stroke-dasharray:none;paint-order:stroke fill markers"
     id="path43"
     cx="7.9374986"
     cy="7.9374986"
     r="7.9374986" />
</svg>
