<?xml version="1.0" encoding="UTF-8" standalone="no"?>
<svg
   width="59.800438"
   height="59.800079"
   viewBox="0 0 59.800439 59.800078"
   fill="none"
   version="1.1"
   id="svg2"
   sodipodi:docname="link.svg"
   inkscape:version="1.3.2 (091e20e, 2023-11-25, custom)"
   xmlns:inkscape="http://www.inkscape.org/namespaces/inkscape"
   xmlns:sodipodi="http://sodipodi.sourceforge.net/DTD/sodipodi-0.dtd"
   xmlns="http://www.w3.org/2000/svg"
   xmlns:svg="http://www.w3.org/2000/svg">
  <defs
     id="defs2" />
  <sodipodi:namedview
     id="namedview2"
     pagecolor="#505050"
     bordercolor="#151319"
     borderopacity="1"
     inkscape:showpageshadow="0"
     inkscape:pageopacity="0"
     inkscape:pagecheckerboard="1"
     inkscape:deskcolor="#505050"
     inkscape:zoom="6.8625"
     inkscape:cx="28.706739"
     inkscape:cy="24.553734"
     inkscape:window-width="1366"
     inkscape:window-height="745"
     inkscape:window-x="-8"
     inkscape:window-y="-8"
     inkscape:window-maximized="1"
     inkscape:current-layer="svg2" />
  <path
     d="m 34.516674,25.283548 c -2.449107,-2.44803 -5.770219,-3.82324 -9.232982,-3.82324 -3.462799,0 -6.78384,1.37521 -9.232911,3.82324 l -9.2358526,9.232767 c -2.4491069,2.449107 -3.8249985,5.770794 -3.8249985,9.234561 0,3.463409 1.3758916,6.785096 3.8249985,9.234203 2.4491068,2.449106 5.7707936,3.82507 9.2343816,3.82507 3.463553,0 6.785275,-1.375964 9.234382,-3.82507 l 4.616419,-4.616205"
     stroke="#151319"
     stroke-width="5.97986"
     stroke-linecap="round"
     stroke-linejoin="round"
     id="path1" />
  <path
     d="m 25.283835,34.516674 c 2.449071,2.448031 5.770148,3.823276 9.232839,3.823276 3.462691,0 6.784019,-1.375245 9.232767,-3.823276 l 9.235996,-9.232982 c 2.449107,-2.449107 3.82507,-5.770829 3.82507,-9.234382 0,-3.463588 -1.375963,-6.7852748 -3.82507,-9.2343816 -2.449107,-2.4491069 -5.770793,-3.8249985 -9.234202,-3.8249985 -3.463767,0 -6.785454,1.3758916 -9.234561,3.8249985 l -4.616563,4.6164196"
     stroke="#151319"
     stroke-width="5.97986"
     stroke-linecap="round"
     stroke-linejoin="round"
     id="path2" />
</svg>
